<mxfile host="app.diagrams.net" modified="2024-01-14T09:29:32.122Z" agent="Mozilla/5.0 (Windows NT 10.0; Win64; x64) AppleWebKit/537.36 (KHTML, like Gecko) Chrome/120.0.0.0 Safari/537.36 Edg/120.0.0.0" etag="w8Vs8ofVkeSFyB1NDvv_" version="22.1.18" type="github">
  <diagram name="Page-1" id="13e1069c-82ec-6db2-03f1-153e76fe0fe0">
    <mxGraphModel dx="1183" dy="550" grid="0" gridSize="10" guides="1" tooltips="1" connect="1" arrows="1" fold="1" page="0" pageScale="1" pageWidth="1100" pageHeight="850" background="none" math="0" shadow="0">
      <root>
        <mxCell id="0" />
        <mxCell id="1" parent="0" />
        <mxCell id="7baba1c4bc27f4b0-2" value="Chat GPT电子产品" style="shape=umlLifeline;perimeter=lifelinePerimeter;whiteSpace=wrap;html=1;container=1;collapsible=0;recursiveResize=0;outlineConnect=0;rounded=1;shadow=0;comic=0;labelBackgroundColor=none;strokeWidth=1;fontFamily=Verdana;fontSize=12;align=center;" parent="1" vertex="1">
          <mxGeometry x="240" y="80" width="120" height="580" as="geometry" />
        </mxCell>
        <mxCell id="G_pwwEHXRlupiAmLodCx-10" value="" style="rounded=0;whiteSpace=wrap;html=1;" parent="7baba1c4bc27f4b0-2" vertex="1">
          <mxGeometry x="45" y="150" width="30" height="170" as="geometry" />
        </mxCell>
        <mxCell id="7baba1c4bc27f4b0-3" value="ChatGPT　API" style="shape=umlLifeline;perimeter=lifelinePerimeter;whiteSpace=wrap;html=1;container=1;collapsible=0;recursiveResize=0;outlineConnect=0;rounded=1;shadow=0;comic=0;labelBackgroundColor=none;strokeWidth=1;fontFamily=Verdana;fontSize=12;align=center;" parent="1" vertex="1">
          <mxGeometry x="400" y="80" width="120" height="580" as="geometry" />
        </mxCell>
        <mxCell id="G_pwwEHXRlupiAmLodCx-3" value="" style="endArrow=classic;html=1;rounded=0;" parent="7baba1c4bc27f4b0-3" source="7baba1c4bc27f4b0-2" edge="1">
          <mxGeometry width="50" height="50" relative="1" as="geometry">
            <mxPoint x="-90" y="200" as="sourcePoint" />
            <mxPoint x="50.75" y="200" as="targetPoint" />
          </mxGeometry>
        </mxCell>
        <mxCell id="G_pwwEHXRlupiAmLodCx-9" value="" style="rounded=0;whiteSpace=wrap;html=1;" parent="7baba1c4bc27f4b0-3" vertex="1">
          <mxGeometry x="50" y="191" width="30" height="82" as="geometry" />
        </mxCell>
        <mxCell id="7baba1c4bc27f4b0-8" value="User" style="shape=umlLifeline;perimeter=lifelinePerimeter;whiteSpace=wrap;html=1;container=1;collapsible=0;recursiveResize=0;outlineConnect=0;rounded=1;shadow=0;comic=0;labelBackgroundColor=none;strokeWidth=1;fontFamily=Verdana;fontSize=12;align=center;" parent="1" vertex="1">
          <mxGeometry x="100" y="80" width="100" height="580" as="geometry" />
        </mxCell>
        <mxCell id="G_pwwEHXRlupiAmLodCx-1" value="" style="endArrow=classic;html=1;rounded=0;" parent="7baba1c4bc27f4b0-8" target="7baba1c4bc27f4b0-2" edge="1">
          <mxGeometry width="50" height="50" relative="1" as="geometry">
            <mxPoint x="49.25000000000023" y="150" as="sourcePoint" />
            <mxPoint x="200" y="150" as="targetPoint" />
          </mxGeometry>
        </mxCell>
        <mxCell id="G_pwwEHXRlupiAmLodCx-11" value="" style="rounded=0;whiteSpace=wrap;html=1;" parent="7baba1c4bc27f4b0-8" vertex="1">
          <mxGeometry x="30" y="150" width="30" height="170" as="geometry" />
        </mxCell>
        <mxCell id="G_pwwEHXRlupiAmLodCx-2" value="提问" style="text;html=1;align=center;verticalAlign=middle;resizable=0;points=[];autosize=1;strokeColor=none;fillColor=none;" parent="1" vertex="1">
          <mxGeometry x="200" y="198" width="50" height="30" as="geometry" />
        </mxCell>
        <mxCell id="G_pwwEHXRlupiAmLodCx-4" value="发送请求" style="text;html=1;align=center;verticalAlign=middle;resizable=0;points=[];autosize=1;strokeColor=none;fillColor=none;" parent="1" vertex="1">
          <mxGeometry x="340" y="248" width="70" height="30" as="geometry" />
        </mxCell>
        <mxCell id="G_pwwEHXRlupiAmLodCx-5" value="&lt;font style=&quot;font-size: 12px;&quot;&gt;返回响应&lt;/font&gt;" style="html=1;verticalAlign=bottom;endArrow=open;dashed=1;endSize=8;curved=0;rounded=0;" parent="1" edge="1">
          <mxGeometry relative="1" as="geometry">
            <mxPoint x="450.13" y="350" as="sourcePoint" />
            <mxPoint x="299.8800000000002" y="350" as="targetPoint" />
          </mxGeometry>
        </mxCell>
        <mxCell id="G_pwwEHXRlupiAmLodCx-7" value="" style="endArrow=classic;html=1;rounded=0;" parent="1" source="7baba1c4bc27f4b0-2" target="7baba1c4bc27f4b0-8" edge="1">
          <mxGeometry width="50" height="50" relative="1" as="geometry">
            <mxPoint x="500" y="380" as="sourcePoint" />
            <mxPoint x="550" y="330" as="targetPoint" />
            <Array as="points">
              <mxPoint x="230" y="400" />
            </Array>
          </mxGeometry>
        </mxCell>
        <mxCell id="G_pwwEHXRlupiAmLodCx-8" value="显示响应" style="text;html=1;align=center;verticalAlign=middle;resizable=0;points=[];autosize=1;strokeColor=none;fillColor=none;" parent="1" vertex="1">
          <mxGeometry x="185" y="368" width="70" height="30" as="geometry" />
        </mxCell>
        <mxCell id="yEjR2jw8utFb-E8vY6KE-3" style="edgeStyle=orthogonalEdgeStyle;rounded=0;orthogonalLoop=1;jettySize=auto;html=1;exitX=1;exitY=0.5;exitDx=0;exitDy=0;entryX=0;entryY=0.5;entryDx=0;entryDy=0;" parent="1" source="yEjR2jw8utFb-E8vY6KE-1" target="yEjR2jw8utFb-E8vY6KE-2" edge="1">
          <mxGeometry relative="1" as="geometry" />
        </mxCell>
        <mxCell id="yEjR2jw8utFb-E8vY6KE-1" value="&lt;font style=&quot;font-size: 15px;&quot;&gt;图像化分块&lt;/font&gt;" style="rounded=0;whiteSpace=wrap;html=1;" parent="1" vertex="1">
          <mxGeometry x="1099" y="228" width="130" height="60" as="geometry" />
        </mxCell>
        <mxCell id="yEjR2jw8utFb-E8vY6KE-6" style="edgeStyle=orthogonalEdgeStyle;rounded=0;orthogonalLoop=1;jettySize=auto;html=1;exitX=1;exitY=0.5;exitDx=0;exitDy=0;entryX=0;entryY=0.5;entryDx=0;entryDy=0;" parent="1" source="yEjR2jw8utFb-E8vY6KE-2" target="yEjR2jw8utFb-E8vY6KE-4" edge="1">
          <mxGeometry relative="1" as="geometry" />
        </mxCell>
        <mxCell id="yEjR2jw8utFb-E8vY6KE-2" value="&lt;font style=&quot;font-size: 15px;&quot;&gt;DCT&lt;br&gt;（离散余弦变换）&lt;/font&gt;" style="rounded=0;whiteSpace=wrap;html=1;" parent="1" vertex="1">
          <mxGeometry x="1268" y="228" width="130" height="60" as="geometry" />
        </mxCell>
        <mxCell id="yEjR2jw8utFb-E8vY6KE-9" value="" style="edgeStyle=orthogonalEdgeStyle;rounded=0;orthogonalLoop=1;jettySize=auto;html=1;" parent="1" source="yEjR2jw8utFb-E8vY6KE-4" target="yEjR2jw8utFb-E8vY6KE-8" edge="1">
          <mxGeometry relative="1" as="geometry" />
        </mxCell>
        <mxCell id="yEjR2jw8utFb-E8vY6KE-4" value="&lt;font style=&quot;font-size: 15px;&quot;&gt;量化&lt;br&gt;&lt;/font&gt;" style="rounded=0;whiteSpace=wrap;html=1;" parent="1" vertex="1">
          <mxGeometry x="1438" y="228" width="120" height="60" as="geometry" />
        </mxCell>
        <mxCell id="yEjR2jw8utFb-E8vY6KE-7" style="edgeStyle=orthogonalEdgeStyle;rounded=0;orthogonalLoop=1;jettySize=auto;html=1;exitX=0.5;exitY=0;exitDx=0;exitDy=0;entryX=0.5;entryY=1;entryDx=0;entryDy=0;" parent="1" source="yEjR2jw8utFb-E8vY6KE-5" target="yEjR2jw8utFb-E8vY6KE-4" edge="1">
          <mxGeometry relative="1" as="geometry" />
        </mxCell>
        <mxCell id="yEjR2jw8utFb-E8vY6KE-5" value="&lt;font style=&quot;font-size: 15px;&quot;&gt;量化表&lt;/font&gt;" style="rounded=0;whiteSpace=wrap;html=1;" parent="1" vertex="1">
          <mxGeometry x="1438" y="328" width="120" height="60" as="geometry" />
        </mxCell>
        <mxCell id="yEjR2jw8utFb-E8vY6KE-14" value="" style="edgeStyle=orthogonalEdgeStyle;rounded=0;orthogonalLoop=1;jettySize=auto;html=1;" parent="1" source="yEjR2jw8utFb-E8vY6KE-8" target="yEjR2jw8utFb-E8vY6KE-13" edge="1">
          <mxGeometry relative="1" as="geometry" />
        </mxCell>
        <mxCell id="yEjR2jw8utFb-E8vY6KE-8" value="&lt;font style=&quot;font-size: 15px;&quot;&gt;熵编码&lt;/font&gt;" style="whiteSpace=wrap;html=1;rounded=0;" parent="1" vertex="1">
          <mxGeometry x="1598" y="228" width="120" height="60" as="geometry" />
        </mxCell>
        <mxCell id="yEjR2jw8utFb-E8vY6KE-12" style="edgeStyle=orthogonalEdgeStyle;rounded=0;orthogonalLoop=1;jettySize=auto;html=1;exitX=0.5;exitY=0;exitDx=0;exitDy=0;entryX=0.5;entryY=1;entryDx=0;entryDy=0;" parent="1" source="yEjR2jw8utFb-E8vY6KE-10" target="yEjR2jw8utFb-E8vY6KE-8" edge="1">
          <mxGeometry relative="1" as="geometry" />
        </mxCell>
        <mxCell id="yEjR2jw8utFb-E8vY6KE-10" value="&lt;font style=&quot;font-size: 15px;&quot;&gt;码表&lt;/font&gt;" style="whiteSpace=wrap;html=1;" parent="1" vertex="1">
          <mxGeometry x="1598" y="328" width="120" height="60" as="geometry" />
        </mxCell>
        <mxCell id="yEjR2jw8utFb-E8vY6KE-13" value="&lt;font style=&quot;font-size: 15px;&quot;&gt;压缩数据&lt;/font&gt;" style="whiteSpace=wrap;html=1;rounded=0;" parent="1" vertex="1">
          <mxGeometry x="1768" y="228" width="120" height="60" as="geometry" />
        </mxCell>
        <mxCell id="7k8dbuTwWqBgyus_986--3" value="" style="edgeStyle=orthogonalEdgeStyle;rounded=0;orthogonalLoop=1;jettySize=auto;html=1;" edge="1" parent="1" source="7k8dbuTwWqBgyus_986--1" target="7k8dbuTwWqBgyus_986--2">
          <mxGeometry relative="1" as="geometry" />
        </mxCell>
        <mxCell id="7k8dbuTwWqBgyus_986--1" value="&lt;font style=&quot;font-size: 15px;&quot;&gt;色度空间转换&lt;/font&gt;" style="rounded=0;whiteSpace=wrap;html=1;" vertex="1" parent="1">
          <mxGeometry x="778" y="228" width="120" height="60" as="geometry" />
        </mxCell>
        <mxCell id="7k8dbuTwWqBgyus_986--4" value="" style="edgeStyle=orthogonalEdgeStyle;rounded=0;orthogonalLoop=1;jettySize=auto;html=1;" edge="1" parent="1" source="7k8dbuTwWqBgyus_986--2" target="yEjR2jw8utFb-E8vY6KE-1">
          <mxGeometry relative="1" as="geometry" />
        </mxCell>
        <mxCell id="7k8dbuTwWqBgyus_986--2" value="&lt;font style=&quot;font-size: 15px;&quot;&gt;色度抽样&lt;/font&gt;" style="whiteSpace=wrap;html=1;rounded=0;" vertex="1" parent="1">
          <mxGeometry x="943" y="228" width="120" height="60" as="geometry" />
        </mxCell>
      </root>
    </mxGraphModel>
  </diagram>
</mxfile>
